<?xml version="1.0" encoding="UTF-8"?>
<svg id="Capa_2" data-name="Capa 2" xmlns="http://www.w3.org/2000/svg" viewBox="0 0 96.49 121.71">
  <defs>
    <style>
      .cls-1 {
        opacity: .99;
      }

      .cls-2 {
        fill: #1d1d1b;
        stroke-width: 0px;
      }
    </style>
  </defs>
  <g id="Capa_1-2" data-name="Capa 1">
    <g>
      <g class="cls-1">
        <path class="cls-2" d="M23.76,22.6v1.48c2.16-2.85,4.52-4.94,7.08-6.27,2.56-1.33,5.51-2,8.84-2s6.13.71,8.68,2.11c2.55,1.41,4.45,3.4,5.71,5.98.81,1.5,1.33,3.12,1.57,4.86.24,1.74.36,3.96.36,6.66v22.84c0,2.46-.56,4.32-1.69,5.58-1.12,1.26-2.59,1.89-4.38,1.89s-3.31-.65-4.45-1.93c-1.14-1.29-1.71-3.13-1.71-5.53v-20.46c0-4.05-.56-7.14-1.69-9.29-1.12-2.14-3.37-3.22-6.72-3.22-2.19,0-4.18.65-5.98,1.96-1.8,1.3-3.12,3.1-3.96,5.37-.6,1.83-.9,5.25-.9,10.25v15.38c0,2.49-.58,4.35-1.73,5.6-1.15,1.24-2.65,1.87-4.47,1.87s-3.22-.65-4.36-1.93c-1.14-1.29-1.71-3.13-1.71-5.53V22.78c0-2.34.51-4.08,1.53-5.24,1.02-1.15,2.41-1.73,4.18-1.73,1.08,0,2.05.26,2.92.76.87.51,1.57,1.27,2.09,2.29.52,1.02.79,2.26.79,3.73Z"/>
      </g>
      <g class="cls-1">
        <path class="cls-2" d="M53.68,79.26v16.32c0,2.58-.58,4.51-1.75,5.8-1.17,1.29-2.71,1.93-4.63,1.93s-3.37-.65-4.52-1.93c-1.15-1.29-1.73-3.22-1.73-5.8v-19.56c0-3.09-.11-5.49-.31-7.2-.21-1.71-.78-3.11-1.71-4.2-.93-1.09-2.4-1.64-4.41-1.64-4.02,0-6.66,1.38-7.94,4.14-1.27,2.76-1.91,6.72-1.91,11.87v16.59c0,2.55-.58,4.47-1.73,5.78-1.15,1.3-2.68,1.96-4.56,1.96s-3.38-.65-4.56-1.96c-1.18-1.3-1.78-3.23-1.78-5.78v-35.12c0-2.31.53-4.06,1.6-5.26,1.06-1.2,2.47-1.8,4.2-1.8s3.08.56,4.2,1.69c1.12,1.12,1.69,2.68,1.69,4.65v1.17c2.13-2.55,4.41-4.42,6.84-5.62,2.43-1.2,5.13-1.8,8.09-1.8s5.74.61,7.96,1.84c2.22,1.23,4.05,3.09,5.49,5.58,2.07-2.52,4.29-4.38,6.66-5.6,2.37-1.21,4.99-1.82,7.87-1.82,3.36,0,6.25.66,8.68,1.98,2.43,1.32,4.24,3.21,5.44,5.67,1.05,2.22,1.57,5.71,1.57,10.48v23.97c0,2.58-.58,4.51-1.75,5.8-1.17,1.29-2.71,1.93-4.63,1.93s-3.38-.65-4.56-1.96c-1.18-1.3-1.78-3.23-1.78-5.78v-20.64c0-2.64-.11-4.75-.34-6.34-.22-1.59-.83-2.92-1.82-4-.99-1.08-2.49-1.62-4.5-1.62-1.62,0-3.16.48-4.61,1.44-1.45.96-2.59,2.25-3.4,3.87-.9,2.07-1.35,5.73-1.35,10.97Z"/>
      </g>
    </g>
    <path class="cls-2" d="M96.49,121.71H0V0h96.49v121.71ZM1,120.71h94.49V1H1v119.71Z"/>
  </g>
</svg>